<?xml version="1.0" encoding="UTF-8" standalone="no"?><!-- Generator: Gravit.io --><svg xmlns="http://www.w3.org/2000/svg" xmlns:xlink="http://www.w3.org/1999/xlink" style="isolation:isolate" viewBox="0 0 100 100" width="100pt" height="100pt"><defs><clipPath id="_clipPath_pbs5sixHMVFYVng9Ldzf34Hr2mE4HRNm"><rect width="100" height="100"/></clipPath></defs><g clip-path="url(#_clipPath_pbs5sixHMVFYVng9Ldzf34Hr2mE4HRNm)"><rect width="100" height="100" style="fill:rgb(92,87,72)" fill-opacity="0"/><path d=" M 27.06 24.94 C 27.06 12.279 37.339 2 50 2 C 62.661 2 72.94 12.279 72.94 24.94 C 72.94 37.601 62.661 47.881 50 47.881 C 37.339 47.881 27.06 37.601 27.06 24.94 Z " fill="rgb(255,200,0)"/><path d=" M 34.329 31.671 Q 35.058 31.626 35.513 31.443 Q 35.969 31.261 36.06 31.147 Q 36.151 31.033 36.288 30.76 L 36.288 18.278 L 36.197 18.278 Q 35.969 18.21 34.557 18.21 L 33.942 18.21 L 33.942 17.162 L 38.657 17.162 L 38.725 17.23 Q 38.771 17.253 40.707 20.1 Q 42.643 22.947 44.602 25.817 L 46.538 28.664 L 46.538 19.098 Q 46.401 18.87 46.31 18.756 Q 46.219 18.642 45.763 18.437 Q 45.308 18.232 44.579 18.21 L 44.192 18.21 L 44.192 17.162 L 44.374 17.162 Q 44.716 17.23 47.039 17.23 Q 49.453 17.23 49.658 17.162 L 49.863 17.162 L 49.863 18.21 L 49.476 18.21 Q 47.813 18.301 47.54 19.098 L 47.517 25.84 L 47.517 32.582 L 47.358 32.719 L 47.039 32.719 Q 46.697 32.719 46.629 32.651 Q 46.561 32.582 44.328 29.302 Q 42.096 26.022 39.796 22.628 Q 37.495 19.235 37.267 18.938 L 37.267 24.861 L 37.29 30.76 Q 37.541 31.58 39.226 31.671 L 39.613 31.671 L 39.613 32.719 L 39.408 32.719 Q 39.067 32.651 36.789 32.651 Q 34.466 32.651 34.124 32.719 L 33.942 32.719 L 33.942 31.671 L 34.329 31.671 Z  M 51.276 22.628 Q 51.298 22.515 51.503 20.009 Q 51.708 17.503 51.708 17.435 L 51.708 17.298 L 65.625 17.298 L 65.625 17.435 Q 65.648 17.549 65.853 20.055 Q 66.058 22.56 66.058 22.628 L 66.058 22.765 L 65.147 22.765 L 65.147 22.628 Q 65.147 22.583 65.079 21.831 Q 65.01 21.08 64.828 20.328 Q 64.646 19.576 64.35 19.212 Q 63.963 18.733 63.097 18.483 Q 62.619 18.369 61.343 18.369 L 60.728 18.369 L 60.546 18.369 Q 59.954 18.369 59.885 18.642 Q 59.863 18.688 59.863 24.997 L 59.863 31.284 Q 60.022 31.512 60.455 31.58 Q 60.888 31.648 62.482 31.671 L 63.165 31.671 L 63.165 32.719 L 62.869 32.719 L 58.678 32.651 Q 54.692 32.696 54.487 32.719 L 54.191 32.719 L 54.191 31.671 L 54.874 31.671 Q 56.469 31.671 56.902 31.603 Q 57.334 31.534 57.494 31.284 L 57.494 24.997 L 57.494 20.191 Q 57.494 18.597 57.38 18.483 Q 57.266 18.369 56.628 18.369 L 56.013 18.369 L 55.558 18.369 Q 53.963 18.369 53.166 19.03 Q 52.756 19.394 52.574 20.1 Q 52.392 20.806 52.301 21.649 Q 52.209 22.492 52.187 22.628 L 52.187 22.765 L 51.276 22.765 L 51.276 22.628 Z " fill-rule="evenodd" fill="rgb(0,0,0)"/><path d=" M 7.418 62.068 Q 7.816 62.043 8.065 61.943 Q 8.314 61.844 8.364 61.781 Q 8.413 61.719 8.488 61.57 L 8.488 54.751 L 8.438 54.751 Q 8.314 54.713 7.542 54.713 L 7.206 54.713 L 7.206 54.141 L 9.782 54.141 L 9.819 54.178 Q 9.844 54.191 10.902 55.746 Q 11.96 57.302 13.03 58.87 L 14.088 60.425 L 14.088 55.199 Q 14.013 55.074 13.963 55.012 Q 13.913 54.95 13.665 54.838 Q 13.416 54.726 13.017 54.713 L 12.806 54.713 L 12.806 54.141 L 12.906 54.141 Q 13.092 54.178 14.361 54.178 Q 15.68 54.178 15.792 54.141 L 15.904 54.141 L 15.904 54.713 L 15.693 54.713 Q 14.784 54.763 14.635 55.199 L 14.623 58.882 L 14.623 62.565 L 14.536 62.64 L 14.361 62.64 Q 14.175 62.64 14.137 62.603 Q 14.1 62.565 12.881 60.773 Q 11.661 58.982 10.404 57.128 Q 9.148 55.273 9.023 55.112 L 9.023 58.347 L 9.036 61.57 Q 9.172 62.018 10.093 62.068 L 10.305 62.068 L 10.305 62.64 L 10.193 62.64 Q 10.006 62.603 8.762 62.603 Q 7.493 62.603 7.306 62.64 L 7.206 62.64 L 7.206 62.068 L 7.418 62.068 Z  M 20.994 61.918 Q 20.297 62.764 19.414 62.764 L 19.326 62.764 Q 17.771 62.764 17.535 61.533 Q 17.522 61.445 17.51 59.828 Q 17.497 58.471 17.497 58.31 Q 17.497 58.148 17.423 58.048 Q 17.298 57.849 16.676 57.849 L 16.539 57.849 L 16.539 57.563 Q 16.539 57.277 16.564 57.277 L 16.701 57.264 Q 16.825 57.252 17.062 57.239 Q 17.298 57.227 17.535 57.215 Q 17.746 57.202 17.995 57.19 Q 18.244 57.177 18.368 57.152 Q 18.493 57.128 18.518 57.14 L 18.555 57.14 L 18.555 59.392 Q 18.567 61.682 18.592 61.844 Q 18.63 62.03 18.766 62.142 Q 19.015 62.317 19.513 62.317 Q 19.837 62.317 20.098 62.205 Q 20.359 62.093 20.496 61.918 Q 20.633 61.744 20.745 61.52 Q 20.857 61.296 20.894 61.147 Q 20.932 60.997 20.944 60.848 Q 20.944 60.836 20.944 60.637 Q 20.944 60.438 20.957 60.139 Q 20.969 59.84 20.957 59.554 L 20.957 58.72 Q 20.957 58.148 20.832 58.011 Q 20.708 57.874 20.21 57.849 L 19.986 57.849 L 19.986 57.277 Q 20.011 57.277 20.932 57.215 Q 21.852 57.152 21.915 57.14 L 22.002 57.14 L 22.002 59.355 Q 22.002 61.595 22.014 61.632 Q 22.052 61.881 22.188 61.956 Q 22.325 62.03 22.748 62.068 L 22.972 62.068 L 22.972 62.64 Q 22.948 62.64 22.039 62.702 Q 21.131 62.764 21.081 62.777 L 20.994 62.777 L 20.994 61.918 Z  M 23.657 62.068 L 23.831 62.068 Q 24.316 62.068 24.416 61.893 L 24.416 61.794 Q 24.416 61.682 24.416 61.508 Q 24.416 61.333 24.416 61.122 Q 24.416 60.91 24.428 60.637 Q 24.441 60.363 24.428 60.114 Q 24.428 59.728 24.428 59.293 Q 24.428 58.857 24.416 58.559 L 24.416 58.272 Q 24.379 58.036 24.242 57.961 Q 24.105 57.887 23.682 57.849 L 23.458 57.849 L 23.458 57.563 Q 23.458 57.277 23.483 57.277 L 23.607 57.264 Q 23.731 57.252 23.955 57.239 Q 24.179 57.227 24.416 57.215 Q 24.627 57.202 24.864 57.19 Q 25.1 57.177 25.225 57.152 Q 25.349 57.128 25.362 57.14 L 25.399 57.14 L 25.399 57.638 Q 25.399 58.111 25.411 58.111 Q 25.424 58.111 25.474 58.048 Q 25.523 57.986 25.623 57.862 Q 25.722 57.737 25.859 57.638 Q 25.996 57.538 26.22 57.401 Q 26.444 57.264 26.693 57.202 Q 26.942 57.14 27.328 57.14 Q 27.514 57.14 27.676 57.165 Q 27.838 57.19 27.962 57.239 Q 28.087 57.289 28.199 57.339 Q 28.311 57.389 28.385 57.451 Q 28.46 57.513 28.522 57.588 Q 28.584 57.663 28.634 57.725 Q 28.684 57.787 28.721 57.862 Q 28.759 57.936 28.771 57.986 Q 28.784 58.036 28.808 58.086 L 28.833 58.148 L 28.871 58.098 Q 28.908 58.048 28.945 57.999 Q 28.983 57.949 29.057 57.862 Q 29.132 57.775 29.219 57.7 Q 29.306 57.625 29.406 57.538 Q 29.505 57.451 29.655 57.389 Q 29.804 57.327 29.941 57.264 Q 30.078 57.202 30.264 57.177 Q 30.451 57.152 30.65 57.14 Q 32.218 57.14 32.355 58.546 Q 32.367 58.633 32.367 60.276 L 32.367 61.346 Q 32.367 61.819 32.392 61.906 Q 32.417 61.993 32.529 62.03 Q 32.79 62.068 33.139 62.068 L 33.338 62.068 L 33.338 62.64 L 33.238 62.64 L 32.952 62.628 Q 32.654 62.615 32.318 62.615 Q 31.982 62.615 31.845 62.603 Q 30.563 62.603 30.451 62.64 L 30.351 62.64 L 30.351 62.068 L 30.551 62.068 Q 31.31 62.068 31.31 61.869 Q 31.322 61.844 31.322 60.151 Q 31.31 58.471 31.297 58.372 Q 31.223 58.023 31.048 57.849 Q 30.874 57.675 30.75 57.638 Q 30.625 57.6 30.426 57.613 Q 29.866 57.613 29.443 58.036 Q 29.107 58.372 29.02 58.72 Q 28.933 59.069 28.92 59.753 L 28.92 60.55 L 28.92 61.296 Q 28.92 61.669 28.933 61.794 Q 28.945 61.918 28.97 61.956 Q 28.995 61.993 29.082 62.03 Q 29.344 62.068 29.692 62.068 L 29.891 62.068 L 29.891 62.64 L 29.792 62.64 L 29.493 62.628 Q 29.207 62.615 28.871 62.615 Q 28.535 62.615 28.398 62.603 Q 27.116 62.603 27.004 62.64 L 26.905 62.64 L 26.905 62.068 L 27.104 62.068 Q 27.863 62.068 27.863 61.869 Q 27.875 61.844 27.875 60.151 Q 27.863 58.471 27.85 58.372 Q 27.776 58.023 27.601 57.849 Q 27.427 57.675 27.303 57.638 Q 27.178 57.6 26.979 57.613 Q 26.419 57.613 25.996 58.036 Q 25.66 58.372 25.573 58.72 Q 25.486 59.069 25.474 59.753 L 25.474 60.55 L 25.474 61.296 Q 25.474 61.669 25.486 61.794 Q 25.498 61.918 25.523 61.956 Q 25.548 61.993 25.635 62.03 Q 25.897 62.068 26.245 62.068 L 26.444 62.068 L 26.444 62.64 L 26.345 62.64 L 26.058 62.628 Q 25.76 62.615 25.424 62.615 Q 25.088 62.615 24.951 62.603 Q 23.669 62.603 23.557 62.64 L 23.458 62.64 L 23.458 62.068 L 23.657 62.068 Z  M 37.332 62.777 Q 36.424 62.777 35.603 61.956 L 35.478 62.18 Q 35.453 62.217 35.416 62.292 Q 35.379 62.366 35.341 62.428 Q 35.304 62.491 35.292 62.516 L 35.229 62.628 L 34.981 62.64 L 34.732 62.64 L 34.732 58.932 Q 34.732 55.186 34.719 55.137 Q 34.682 54.9 34.545 54.825 Q 34.408 54.751 33.985 54.713 L 33.761 54.713 L 33.761 54.427 Q 33.761 54.141 33.786 54.141 L 33.91 54.129 Q 34.035 54.116 34.271 54.104 Q 34.508 54.091 34.732 54.079 Q 34.943 54.066 35.192 54.054 Q 35.441 54.041 35.565 54.017 Q 35.69 53.992 35.702 54.004 L 35.74 54.004 L 35.74 55.883 Q 35.74 57.775 35.752 57.775 L 35.789 57.737 Q 35.827 57.7 35.901 57.65 Q 35.976 57.6 36.088 57.526 Q 36.2 57.451 36.349 57.401 Q 36.499 57.351 36.673 57.277 Q 36.847 57.202 37.071 57.177 Q 37.295 57.152 37.531 57.14 Q 38.502 57.14 39.249 57.924 Q 39.995 58.708 40.008 59.952 Q 40.008 61.209 39.211 61.993 Q 38.415 62.777 37.332 62.777 Z  M 35.777 61.421 Q 35.777 61.433 35.839 61.52 Q 35.901 61.607 35.951 61.657 Q 36.001 61.707 36.076 61.806 Q 36.15 61.906 36.225 61.956 Q 36.3 62.005 36.412 62.093 Q 36.524 62.18 36.623 62.205 Q 36.723 62.229 36.884 62.279 Q 37.046 62.329 37.183 62.317 Q 37.619 62.317 38.029 62.068 Q 38.44 61.819 38.639 61.234 Q 38.788 60.798 38.788 60.002 Q 38.788 59.069 38.639 58.621 Q 38.303 57.6 37.245 57.6 Q 36.872 57.6 36.486 57.787 Q 36.1 57.974 35.852 58.322 L 35.777 58.422 L 35.777 61.421 Z  M 40.779 59.927 Q 40.779 59.243 41.028 58.683 Q 41.277 58.123 41.65 57.775 Q 42.024 57.426 42.459 57.252 Q 42.895 57.078 43.28 57.065 Q 43.94 57.065 44.413 57.289 Q 44.886 57.513 45.135 57.911 Q 45.383 58.31 45.483 58.708 Q 45.583 59.106 45.595 59.591 Q 45.595 59.678 45.508 59.766 L 41.999 59.766 L 41.999 59.952 Q 41.999 61.794 43.243 62.192 Q 43.492 62.267 43.791 62.267 Q 44.313 62.267 44.687 61.869 Q 44.898 61.657 45.023 61.346 L 45.147 61.047 Q 45.184 61.01 45.346 61.01 L 45.383 61.01 Q 45.595 61.01 45.595 61.134 Q 45.595 61.184 45.558 61.296 Q 45.321 61.981 44.774 62.379 Q 44.226 62.777 43.542 62.777 Q 42.36 62.777 41.576 61.918 Q 40.792 61.06 40.779 59.927 Z  M 44.575 59.218 Q 44.438 57.625 43.392 57.526 L 43.368 57.526 Q 43.268 57.526 43.168 57.538 Q 43.069 57.551 42.857 57.638 Q 42.646 57.725 42.496 57.899 Q 42.347 58.073 42.21 58.409 Q 42.073 58.745 42.011 59.23 L 42.011 59.318 L 44.575 59.318 L 44.575 59.218 Z  M 46.404 62.068 L 46.578 62.068 Q 47.063 62.068 47.163 61.893 L 47.163 61.794 Q 47.163 61.682 47.163 61.508 Q 47.163 61.333 47.175 61.122 Q 47.188 60.91 47.175 60.637 Q 47.163 60.363 47.175 60.114 Q 47.175 59.728 47.175 59.293 Q 47.175 58.857 47.175 58.559 L 47.163 58.272 Q 47.126 58.036 46.989 57.961 Q 46.852 57.887 46.429 57.849 L 46.205 57.849 L 46.205 57.563 Q 46.205 57.277 46.23 57.277 L 46.354 57.264 Q 46.478 57.252 46.702 57.239 Q 46.926 57.227 47.15 57.215 Q 47.35 57.202 47.586 57.19 Q 47.822 57.177 47.947 57.152 Q 48.071 57.128 48.084 57.14 L 48.121 57.14 L 48.121 57.999 Q 48.606 57.152 49.328 57.152 L 49.403 57.152 Q 49.963 57.152 50.224 57.426 Q 50.485 57.7 50.485 57.999 Q 50.485 58.26 50.324 58.447 Q 50.162 58.633 49.851 58.633 Q 49.54 58.633 49.39 58.434 Q 49.241 58.235 49.228 58.011 Q 49.228 57.899 49.253 57.812 Q 49.278 57.725 49.316 57.663 Q 49.353 57.6 49.353 57.6 Q 49.328 57.575 49.067 57.65 Q 48.868 57.75 48.768 57.837 Q 48.183 58.397 48.183 60.064 L 48.183 60.724 Q 48.183 60.885 48.183 61.06 Q 48.183 61.234 48.183 61.383 Q 48.183 61.533 48.196 61.632 Q 48.208 61.732 48.196 61.819 L 48.196 61.881 Q 48.208 61.906 48.233 61.931 Q 48.258 61.956 48.295 61.968 Q 48.333 61.981 48.357 62.005 Q 48.382 62.03 48.445 62.03 Q 48.507 62.03 48.532 62.043 Q 48.557 62.055 48.644 62.055 Q 48.731 62.055 48.756 62.055 Q 48.781 62.055 48.88 62.068 Q 48.98 62.08 49.005 62.068 L 49.39 62.068 L 49.39 62.64 L 49.278 62.64 Q 49.054 62.603 47.698 62.603 Q 46.416 62.603 46.304 62.64 L 46.205 62.64 L 46.205 62.068 L 46.404 62.068 Z  M 54.393 57.128 Q 54.405 57.065 54.517 55.696 Q 54.629 54.328 54.629 54.29 L 54.629 54.216 L 62.232 54.216 L 62.232 54.29 Q 62.245 54.353 62.357 55.721 Q 62.469 57.09 62.469 57.128 L 62.469 57.202 L 61.971 57.202 L 61.971 57.128 Q 61.971 57.103 61.933 56.692 Q 61.896 56.281 61.797 55.871 Q 61.697 55.46 61.535 55.261 Q 61.324 55 60.851 54.863 Q 60.59 54.801 59.893 54.801 L 59.557 54.801 L 59.457 54.801 Q 59.134 54.801 59.096 54.95 Q 59.084 54.975 59.084 58.422 L 59.084 61.856 Q 59.171 61.981 59.407 62.018 Q 59.644 62.055 60.515 62.068 L 60.888 62.068 L 60.888 62.64 L 60.726 62.64 L 58.437 62.603 Q 56.259 62.628 56.147 62.64 L 55.985 62.64 L 55.985 62.068 L 56.359 62.068 Q 57.23 62.068 57.466 62.03 Q 57.703 61.993 57.79 61.856 L 57.79 58.422 L 57.79 55.796 Q 57.79 54.925 57.728 54.863 Q 57.665 54.801 57.317 54.801 L 56.981 54.801 L 56.732 54.801 Q 55.861 54.801 55.425 55.161 Q 55.201 55.361 55.102 55.746 Q 55.002 56.132 54.953 56.592 Q 54.903 57.053 54.89 57.128 L 54.89 57.202 L 54.393 57.202 L 54.393 57.128 Z  M 63.439 62.068 L 63.613 62.068 Q 64.099 62.068 64.198 61.893 L 64.198 61.794 Q 64.198 61.682 64.198 61.508 Q 64.198 61.333 64.198 61.097 Q 64.198 60.861 64.198 60.562 Q 64.198 60.263 64.211 59.94 Q 64.223 59.616 64.211 59.255 Q 64.198 58.894 64.211 58.546 Q 64.211 58.086 64.211 57.575 Q 64.211 57.065 64.211 56.642 Q 64.211 56.219 64.198 55.896 Q 64.186 55.572 64.198 55.348 Q 64.211 55.124 64.198 55.137 Q 64.161 54.9 64.024 54.825 Q 63.887 54.751 63.464 54.713 L 63.24 54.713 L 63.24 54.427 Q 63.24 54.141 63.265 54.141 L 63.389 54.129 Q 63.514 54.116 63.75 54.104 Q 63.987 54.091 64.211 54.079 Q 64.422 54.066 64.671 54.054 Q 64.92 54.041 65.044 54.017 Q 65.169 53.992 65.181 54.004 L 65.219 54.004 L 65.219 58.073 Q 65.965 57.14 67.01 57.14 Q 68.541 57.14 68.69 58.546 Q 68.703 58.633 68.703 60.276 L 68.703 61.346 Q 68.703 61.819 68.728 61.906 Q 68.753 61.993 68.865 62.03 Q 69.126 62.068 69.474 62.068 L 69.673 62.068 L 69.673 62.64 L 69.574 62.64 L 69.275 62.628 Q 68.989 62.615 68.653 62.615 Q 68.317 62.615 68.18 62.603 Q 66.898 62.603 66.786 62.64 L 66.687 62.64 L 66.687 62.068 L 66.886 62.068 Q 67.645 62.068 67.645 61.869 Q 67.658 61.844 67.658 60.151 Q 67.645 58.471 67.633 58.372 Q 67.558 58.023 67.384 57.849 Q 67.21 57.675 67.085 57.638 Q 66.961 57.6 66.762 57.613 Q 66.202 57.613 65.779 58.036 Q 65.443 58.372 65.355 58.72 Q 65.268 59.069 65.256 59.753 L 65.256 60.55 L 65.256 61.296 Q 65.256 61.669 65.268 61.794 Q 65.281 61.918 65.306 61.956 Q 65.331 61.993 65.418 62.03 Q 65.679 62.068 66.027 62.068 L 66.227 62.068 L 66.227 62.64 L 66.127 62.64 L 65.841 62.628 Q 65.542 62.615 65.206 62.615 Q 64.87 62.615 64.733 62.603 Q 63.452 62.603 63.34 62.64 L 63.24 62.64 L 63.24 62.068 L 63.439 62.068 Z  M 70.196 59.927 Q 70.196 59.243 70.445 58.683 Q 70.694 58.123 71.067 57.775 Q 71.44 57.426 71.876 57.252 Q 72.311 57.078 72.697 57.065 Q 73.357 57.065 73.83 57.289 Q 74.302 57.513 74.551 57.911 Q 74.8 58.31 74.9 58.708 Q 74.999 59.106 75.012 59.591 Q 75.012 59.678 74.925 59.766 L 71.416 59.766 L 71.416 59.952 Q 71.416 61.794 72.66 62.192 Q 72.909 62.267 73.207 62.267 Q 73.73 62.267 74.103 61.869 Q 74.315 61.657 74.439 61.346 L 74.564 61.047 Q 74.601 61.01 74.763 61.01 L 74.8 61.01 Q 75.012 61.01 75.012 61.134 Q 75.012 61.184 74.974 61.296 Q 74.738 61.981 74.19 62.379 Q 73.643 62.777 72.959 62.777 Q 71.776 62.777 70.992 61.918 Q 70.208 61.06 70.196 59.927 Z  M 73.991 59.218 Q 73.854 57.625 72.809 57.526 L 72.784 57.526 Q 72.685 57.526 72.585 57.538 Q 72.486 57.551 72.274 57.638 Q 72.063 57.725 71.913 57.899 Q 71.764 58.073 71.627 58.409 Q 71.49 58.745 71.428 59.23 L 71.428 59.318 L 73.991 59.318 L 73.991 59.218 Z  M 75.721 59.977 Q 75.721 58.795 76.53 57.936 Q 77.339 57.078 78.483 57.065 Q 79.603 57.065 80.412 57.911 Q 81.221 58.758 81.234 59.965 Q 81.234 61.147 80.437 61.956 Q 79.641 62.764 78.483 62.764 Q 77.276 62.764 76.505 61.931 Q 75.733 61.097 75.721 59.977 Z  M 78.483 62.267 Q 80.002 62.267 80.002 60.238 L 80.002 59.84 L 80.002 59.529 Q 80.002 59.255 79.989 59.056 Q 79.977 58.857 79.902 58.583 Q 79.827 58.31 79.703 58.135 Q 79.579 57.961 79.317 57.787 Q 79.056 57.613 78.707 57.538 Q 78.645 57.526 78.508 57.526 Q 78.135 57.526 77.799 57.675 Q 77.264 57.949 77.102 58.434 Q 76.94 58.919 76.94 59.579 L 76.94 59.828 Q 76.94 61.022 77.177 61.508 Q 77.575 62.267 78.483 62.267 Z  M 82.042 62.068 L 82.217 62.068 Q 82.702 62.068 82.801 61.893 L 82.801 61.794 Q 82.801 61.682 82.801 61.508 Q 82.801 61.333 82.814 61.122 Q 82.826 60.91 82.814 60.637 Q 82.801 60.363 82.814 60.114 Q 82.814 59.728 82.814 59.293 Q 82.814 58.857 82.814 58.559 L 82.801 58.272 Q 82.764 58.036 82.627 57.961 Q 82.49 57.887 82.067 57.849 L 81.843 57.849 L 81.843 57.563 Q 81.843 57.277 81.868 57.277 L 81.993 57.264 Q 82.117 57.252 82.341 57.239 Q 82.565 57.227 82.789 57.215 Q 82.988 57.202 83.225 57.19 Q 83.461 57.177 83.585 57.152 Q 83.71 57.128 83.722 57.14 L 83.76 57.14 L 83.76 57.999 Q 84.245 57.152 84.967 57.152 L 85.041 57.152 Q 85.601 57.152 85.863 57.426 Q 86.124 57.7 86.124 57.999 Q 86.124 58.26 85.962 58.447 Q 85.8 58.633 85.489 58.633 Q 85.178 58.633 85.029 58.434 Q 84.88 58.235 84.867 58.011 Q 84.867 57.899 84.892 57.812 Q 84.917 57.725 84.954 57.663 Q 84.992 57.6 84.992 57.6 Q 84.967 57.575 84.705 57.65 Q 84.506 57.75 84.407 57.837 Q 83.822 58.397 83.822 60.064 L 83.822 60.724 Q 83.822 60.885 83.822 61.06 Q 83.822 61.234 83.822 61.383 Q 83.822 61.533 83.834 61.632 Q 83.847 61.732 83.834 61.819 L 83.834 61.881 Q 83.847 61.906 83.872 61.931 Q 83.896 61.956 83.934 61.968 Q 83.971 61.981 83.996 62.005 Q 84.021 62.03 84.083 62.03 Q 84.145 62.03 84.17 62.043 Q 84.195 62.055 84.282 62.055 Q 84.369 62.055 84.394 62.055 Q 84.419 62.055 84.519 62.068 Q 84.618 62.08 84.643 62.068 L 85.029 62.068 L 85.029 62.64 L 84.917 62.64 Q 84.693 62.603 83.337 62.603 Q 82.055 62.603 81.943 62.64 L 81.843 62.64 L 81.843 62.068 L 82.042 62.068 Z  M 87.331 63.461 Q 87.605 63.461 87.766 63.636 Q 87.928 63.81 87.941 64.083 Q 87.941 64.307 87.829 64.444 Q 87.717 64.581 87.605 64.631 Q 87.518 64.668 87.679 64.706 Q 87.766 64.731 87.854 64.731 Q 88.102 64.731 88.314 64.619 Q 88.526 64.507 88.65 64.357 Q 88.774 64.208 88.924 63.959 Q 89.073 63.71 89.123 63.573 Q 89.173 63.436 89.272 63.175 L 89.484 62.64 L 88.588 60.363 Q 88.339 59.741 88.028 58.944 Q 87.729 58.185 87.667 58.061 Q 87.605 57.936 87.468 57.899 Q 87.455 57.887 87.443 57.887 Q 87.294 57.849 86.895 57.849 L 86.709 57.849 L 86.709 57.277 L 86.796 57.277 L 87.045 57.289 Q 87.281 57.289 87.567 57.302 Q 87.854 57.314 87.99 57.314 Q 88.078 57.314 88.239 57.314 Q 88.401 57.314 88.6 57.302 Q 88.799 57.289 88.961 57.289 Q 89.123 57.289 89.26 57.289 L 89.372 57.277 L 89.471 57.277 L 89.471 57.849 L 89.359 57.849 Q 88.749 57.849 88.774 58.086 L 90.031 61.246 Q 90.031 61.234 90.604 59.815 L 91.151 58.397 L 91.151 58.285 Q 91.151 58.098 91.027 57.999 Q 90.902 57.899 90.803 57.874 Q 90.703 57.849 90.628 57.849 L 90.591 57.849 L 90.591 57.277 L 90.666 57.277 L 90.753 57.277 Q 90.84 57.277 90.964 57.277 Q 91.089 57.277 91.226 57.289 Q 91.363 57.302 91.512 57.302 Q 91.661 57.302 91.724 57.302 Q 92.408 57.302 92.731 57.277 L 92.794 57.277 L 92.794 57.849 L 92.657 57.849 Q 91.96 57.911 91.724 58.347 Q 91.699 58.372 91.176 59.716 Q 90.653 61.06 90.069 62.528 Q 89.484 63.996 89.297 64.27 Q 88.712 65.179 87.878 65.179 Q 87.331 65.179 87.02 64.843 Q 86.709 64.507 86.709 64.083 Q 86.709 63.748 86.908 63.611 Q 87.107 63.474 87.331 63.461 Z " fill-rule="evenodd" fill="rgb(227,225,215)"/><path d=" M 22.892 77.437 Q 22.705 77.399 21.461 77.399 Q 20.316 77.399 20.204 77.437 L 20.117 77.437 L 20.117 76.864 L 20.303 76.864 Q 21.199 76.827 21.448 76.342 Q 21.461 76.304 22.108 74.388 Q 22.755 72.472 23.389 70.555 Q 24.024 68.639 24.049 68.627 Q 24.086 68.527 24.273 68.527 L 24.397 68.527 Q 24.646 68.539 24.696 68.614 Q 24.721 68.639 26.04 72.584 L 27.396 76.603 Q 27.483 76.765 27.633 76.802 Q 27.782 76.839 28.267 76.864 L 28.64 76.864 L 28.64 77.437 L 28.528 77.437 Q 28.417 77.399 26.948 77.399 Q 25.418 77.399 25.156 77.437 L 25.032 77.437 L 25.032 76.864 L 25.194 76.864 Q 26.065 76.864 26.065 76.64 Q 26.065 76.615 25.766 75.719 L 25.467 74.836 L 22.568 74.836 L 22.319 75.57 Q 22.07 76.304 22.07 76.379 Q 22.07 76.541 22.319 76.702 Q 22.568 76.864 22.941 76.864 L 23.004 76.864 L 23.004 77.437 L 22.892 77.437 Z  M 25.281 74.263 L 24.011 70.506 L 22.755 74.251 Q 22.755 74.263 24.011 74.263 L 25.281 74.263 Z  M 29.574 76.864 L 29.748 76.864 Q 30.233 76.864 30.333 76.69 L 30.333 76.59 Q 30.333 76.478 30.333 76.304 Q 30.333 76.13 30.333 75.894 Q 30.333 75.657 30.345 75.359 Q 30.358 75.06 30.345 74.736 Q 30.333 74.413 30.345 74.052 Q 30.358 73.691 30.345 73.343 Q 30.345 72.882 30.345 72.372 Q 30.345 71.862 30.345 71.439 Q 30.345 71.016 30.345 70.692 Q 30.345 70.369 30.333 70.145 Q 30.32 69.921 30.333 69.933 Q 30.295 69.697 30.159 69.622 Q 30.022 69.547 29.599 69.51 L 29.375 69.51 L 29.375 69.224 Q 29.375 68.938 29.4 68.938 L 29.524 68.925 Q 29.648 68.913 29.885 68.9 Q 30.121 68.888 30.345 68.875 Q 30.557 68.863 30.806 68.85 Q 31.055 68.838 31.179 68.813 Q 31.303 68.788 31.316 68.801 L 31.353 68.801 L 31.353 72.72 Q 31.353 76.665 31.366 76.69 Q 31.415 76.79 31.515 76.827 Q 31.776 76.864 32.125 76.864 L 32.324 76.864 L 32.324 77.437 L 32.224 77.437 L 31.938 77.424 Q 31.652 77.412 31.328 77.412 Q 31.005 77.412 30.855 77.399 Q 30.706 77.387 30.383 77.399 Q 30.059 77.412 29.76 77.424 L 29.474 77.437 L 29.375 77.437 L 29.375 76.864 L 29.574 76.864 Z  M 36.604 72.347 Q 37.152 71.8 37.849 71.8 Q 38.222 71.8 38.384 72.036 Q 38.546 72.272 38.546 72.509 Q 38.546 72.683 38.434 72.82 Q 38.322 72.957 38.098 72.957 Q 37.687 72.957 37.637 72.584 Q 37.612 72.409 37.675 72.322 Q 37.675 72.31 37.687 72.285 L 37.687 72.272 Q 37.339 72.31 37.028 72.546 Q 36.928 72.608 36.928 72.633 Q 36.928 72.646 36.978 72.696 Q 37.028 72.745 37.09 72.845 Q 37.152 72.944 37.227 73.069 Q 37.301 73.193 37.339 73.392 Q 37.376 73.592 37.388 73.803 Q 37.388 74.575 36.779 75.11 Q 36.169 75.645 35.273 75.657 Q 34.651 75.657 34.041 75.309 Q 33.904 75.533 33.904 75.782 Q 33.904 76.217 34.228 76.429 Q 34.34 76.503 34.439 76.503 Q 34.539 76.503 35.335 76.528 Q 36.38 76.541 36.679 76.603 Q 37.438 76.715 37.874 77.113 Q 38.359 77.598 38.359 78.333 Q 38.359 79.166 37.388 79.614 Q 36.642 80 35.621 80 Q 34.589 80 33.842 79.614 Q 32.871 79.179 32.871 78.37 Q 32.871 77.922 33.133 77.623 Q 33.394 77.325 33.655 77.213 L 33.792 77.138 Q 33.344 76.752 33.344 76.093 Q 33.344 75.508 33.705 75.035 Q 33.158 74.487 33.158 73.803 Q 33.158 73.019 33.78 72.484 Q 34.402 71.949 35.285 71.937 Q 35.92 71.937 36.468 72.26 L 36.604 72.347 Z  M 36.231 73.168 Q 36.169 72.82 35.908 72.621 Q 35.646 72.422 35.261 72.409 Q 34.9 72.409 34.638 72.608 Q 34.377 72.808 34.315 73.168 Q 34.277 73.38 34.277 73.803 Q 34.277 74.351 34.365 74.612 Q 34.452 74.873 34.738 75.047 Q 34.949 75.172 35.273 75.172 Q 35.547 75.172 35.746 75.085 Q 35.945 74.998 36.032 74.861 Q 36.119 74.724 36.169 74.612 Q 36.219 74.5 36.231 74.425 Q 36.268 74.226 36.268 73.803 Q 36.268 73.38 36.231 73.168 Z  M 37.525 78.37 Q 37.525 78.059 37.351 77.86 Q 37.177 77.661 36.841 77.573 Q 36.505 77.486 36.231 77.461 Q 35.957 77.437 35.559 77.437 L 35.223 77.437 Q 34.389 77.437 34.228 77.511 Q 33.979 77.623 33.842 77.86 Q 33.705 78.096 33.693 78.357 Q 33.693 78.482 33.767 78.644 Q 33.842 78.805 34.029 79.017 Q 34.215 79.228 34.626 79.365 Q 35.037 79.502 35.621 79.515 Q 36.48 79.515 37.003 79.166 Q 37.525 78.818 37.525 78.37 Z  M 39.081 74.774 Q 39.081 73.592 39.89 72.733 Q 40.698 71.874 41.843 71.862 Q 42.963 71.862 43.772 72.708 Q 44.581 73.554 44.593 74.761 Q 44.593 75.943 43.797 76.752 Q 43 77.561 41.843 77.561 Q 40.636 77.561 39.865 76.727 Q 39.093 75.894 39.081 74.774 Z  M 41.843 77.063 Q 43.361 77.063 43.361 75.035 L 43.361 74.637 L 43.361 74.326 Q 43.361 74.052 43.349 73.853 Q 43.336 73.654 43.262 73.38 Q 43.187 73.106 43.063 72.932 Q 42.938 72.758 42.677 72.584 Q 42.416 72.409 42.067 72.335 Q 42.005 72.322 41.868 72.322 Q 41.495 72.322 41.159 72.472 Q 40.624 72.745 40.462 73.231 Q 40.3 73.716 40.3 74.375 L 40.3 74.624 Q 40.3 75.819 40.537 76.304 Q 40.935 77.063 41.843 77.063 Z  M 45.402 76.864 L 45.576 76.864 Q 46.062 76.864 46.161 76.69 L 46.161 76.59 Q 46.161 76.478 46.161 76.304 Q 46.161 76.13 46.174 75.918 Q 46.186 75.707 46.174 75.433 Q 46.161 75.159 46.174 74.911 Q 46.174 74.525 46.174 74.089 Q 46.174 73.654 46.174 73.355 L 46.161 73.069 Q 46.124 72.832 45.987 72.758 Q 45.85 72.683 45.427 72.646 L 45.203 72.646 L 45.203 72.36 Q 45.203 72.073 45.228 72.073 L 45.352 72.061 Q 45.477 72.049 45.701 72.036 Q 45.925 72.024 46.149 72.011 Q 46.348 71.999 46.584 71.986 Q 46.821 71.974 46.945 71.949 Q 47.07 71.924 47.082 71.937 L 47.119 71.937 L 47.119 72.795 Q 47.605 71.949 48.326 71.949 L 48.401 71.949 Q 48.961 71.949 49.222 72.223 Q 49.484 72.496 49.484 72.795 Q 49.484 73.056 49.322 73.243 Q 49.16 73.43 48.849 73.43 Q 48.538 73.43 48.389 73.231 Q 48.239 73.032 48.227 72.808 Q 48.227 72.696 48.252 72.608 Q 48.277 72.521 48.314 72.459 Q 48.351 72.397 48.351 72.397 Q 48.326 72.372 48.065 72.447 Q 47.866 72.546 47.766 72.633 Q 47.182 73.193 47.182 74.861 L 47.182 75.52 Q 47.182 75.682 47.182 75.856 Q 47.182 76.03 47.182 76.18 Q 47.182 76.329 47.194 76.429 Q 47.206 76.528 47.194 76.615 L 47.194 76.678 Q 47.206 76.702 47.231 76.727 Q 47.256 76.752 47.294 76.765 Q 47.331 76.777 47.356 76.802 Q 47.381 76.827 47.443 76.827 Q 47.505 76.827 47.53 76.839 Q 47.555 76.852 47.642 76.852 Q 47.729 76.852 47.754 76.852 Q 47.779 76.852 47.878 76.864 Q 47.978 76.877 48.003 76.864 L 48.389 76.864 L 48.389 77.437 L 48.277 77.437 Q 48.053 77.399 46.696 77.399 Q 45.415 77.399 45.303 77.437 L 45.203 77.437 L 45.203 76.864 L 45.402 76.864 Z  M 50.691 69.858 Q 50.691 69.51 50.915 69.311 Q 51.139 69.112 51.462 69.112 Q 51.748 69.137 51.96 69.323 Q 52.171 69.51 52.171 69.858 Q 52.171 70.232 51.96 70.418 Q 51.748 70.605 51.437 70.605 Q 51.126 70.605 50.915 70.418 Q 50.703 70.232 50.691 69.858 Z  M 52.906 77.437 Q 52.719 77.399 51.611 77.399 Q 51.475 77.399 51.151 77.399 Q 50.828 77.399 50.529 77.424 L 50.255 77.437 L 50.156 77.437 L 50.156 76.864 L 50.355 76.864 Q 50.703 76.864 50.964 76.827 Q 51.076 76.777 51.101 76.69 Q 51.126 76.603 51.126 76.167 L 51.126 74.886 L 51.126 73.791 Q 51.126 73.144 51.101 72.969 Q 51.076 72.795 50.927 72.733 Q 50.753 72.646 50.342 72.646 L 50.205 72.646 L 50.205 72.36 Q 50.205 72.073 50.23 72.073 L 50.355 72.061 Q 50.479 72.049 50.703 72.036 Q 50.927 72.024 51.151 72.011 Q 51.363 71.999 51.599 71.986 Q 51.835 71.974 51.96 71.949 Q 52.084 71.924 52.097 71.937 L 52.134 71.937 L 52.134 76.665 Q 52.196 76.79 52.283 76.814 Q 52.371 76.839 52.719 76.864 L 53.005 76.864 L 53.005 77.437 L 52.906 77.437 Z  M 53.627 72.185 Q 54.287 72.136 54.648 71.489 Q 55.009 70.841 55.046 69.97 L 55.046 69.784 L 55.544 69.784 L 55.544 72.073 L 57.224 72.073 L 57.224 72.646 L 55.544 72.646 L 55.544 74.438 Q 55.556 75.993 55.556 76.192 Q 55.556 76.391 55.643 76.59 Q 55.817 77.076 56.253 77.076 Q 56.8 77.076 56.925 76.192 Q 56.937 76.093 56.937 75.62 L 56.937 75.184 L 57.435 75.184 L 57.435 75.62 L 57.435 75.769 Q 57.435 76.727 56.912 77.225 Q 56.576 77.561 56.041 77.561 Q 55.618 77.561 55.307 77.412 Q 54.996 77.262 54.834 77.026 Q 54.673 76.79 54.598 76.59 Q 54.523 76.391 54.511 76.192 Q 54.498 76.105 54.498 74.351 L 54.498 72.646 L 53.515 72.646 L 53.515 72.185 L 53.627 72.185 Z  M 58.642 76.864 L 58.816 76.864 Q 59.302 76.864 59.401 76.69 L 59.401 76.59 Q 59.401 76.478 59.401 76.304 Q 59.401 76.13 59.401 75.894 Q 59.401 75.657 59.401 75.359 Q 59.401 75.06 59.414 74.736 Q 59.426 74.413 59.414 74.052 Q 59.401 73.691 59.414 73.343 Q 59.414 72.882 59.414 72.372 Q 59.414 71.862 59.414 71.439 Q 59.414 71.016 59.401 70.692 Q 59.389 70.369 59.401 70.145 Q 59.414 69.921 59.401 69.933 Q 59.364 69.697 59.227 69.622 Q 59.09 69.547 58.667 69.51 L 58.443 69.51 L 58.443 69.224 Q 58.443 68.938 58.468 68.938 L 58.592 68.925 Q 58.717 68.913 58.953 68.9 Q 59.19 68.888 59.414 68.875 Q 59.625 68.863 59.874 68.85 Q 60.123 68.838 60.247 68.813 Q 60.372 68.788 60.384 68.801 L 60.422 68.801 L 60.422 72.87 Q 61.168 71.937 62.213 71.937 Q 63.744 71.937 63.893 73.343 Q 63.906 73.43 63.906 75.072 L 63.906 76.142 Q 63.906 76.615 63.931 76.702 Q 63.956 76.79 64.068 76.827 Q 64.329 76.864 64.677 76.864 L 64.876 76.864 L 64.876 77.437 L 64.777 77.437 L 64.478 77.424 Q 64.192 77.412 63.856 77.412 Q 63.52 77.412 63.383 77.399 Q 62.101 77.399 61.989 77.437 L 61.89 77.437 L 61.89 76.864 L 62.089 76.864 Q 62.848 76.864 62.848 76.665 Q 62.861 76.64 62.861 74.948 Q 62.848 73.268 62.836 73.168 Q 62.761 72.82 62.587 72.646 Q 62.413 72.472 62.288 72.434 Q 62.164 72.397 61.965 72.409 Q 61.405 72.409 60.982 72.832 Q 60.646 73.168 60.558 73.517 Q 60.471 73.865 60.459 74.55 L 60.459 75.346 L 60.459 76.093 Q 60.459 76.466 60.471 76.59 Q 60.484 76.715 60.509 76.752 Q 60.534 76.79 60.621 76.827 Q 60.882 76.864 61.23 76.864 L 61.429 76.864 L 61.429 77.437 L 61.33 77.437 L 61.044 77.424 Q 60.745 77.412 60.409 77.412 Q 60.073 77.412 59.936 77.399 Q 58.655 77.399 58.543 77.437 L 58.443 77.437 L 58.443 76.864 L 58.642 76.864 Z  M 65.561 76.864 L 65.735 76.864 Q 66.22 76.864 66.32 76.69 L 66.32 76.59 Q 66.32 76.478 66.32 76.304 Q 66.32 76.13 66.32 75.918 Q 66.32 75.707 66.332 75.433 Q 66.345 75.159 66.332 74.911 Q 66.332 74.525 66.332 74.089 Q 66.332 73.654 66.32 73.355 L 66.32 73.069 Q 66.283 72.832 66.146 72.758 Q 66.009 72.683 65.586 72.646 L 65.362 72.646 L 65.362 72.36 Q 65.362 72.073 65.387 72.073 L 65.511 72.061 Q 65.635 72.049 65.859 72.036 Q 66.083 72.024 66.32 72.011 Q 66.531 71.999 66.768 71.986 Q 67.004 71.974 67.129 71.949 Q 67.253 71.924 67.266 71.937 L 67.303 71.937 L 67.303 72.434 Q 67.303 72.907 67.315 72.907 Q 67.328 72.907 67.378 72.845 Q 67.427 72.783 67.527 72.658 Q 67.626 72.534 67.763 72.434 Q 67.9 72.335 68.124 72.198 Q 68.348 72.061 68.597 71.999 Q 68.846 71.937 69.232 71.937 Q 69.418 71.937 69.58 71.961 Q 69.742 71.986 69.866 72.036 Q 69.991 72.086 70.103 72.136 Q 70.215 72.185 70.289 72.248 Q 70.364 72.31 70.426 72.384 Q 70.488 72.459 70.538 72.521 Q 70.588 72.584 70.625 72.658 Q 70.663 72.733 70.675 72.783 Q 70.688 72.832 70.712 72.882 L 70.737 72.944 L 70.775 72.895 Q 70.812 72.845 70.849 72.795 Q 70.887 72.745 70.961 72.658 Q 71.036 72.571 71.123 72.496 Q 71.21 72.422 71.31 72.335 Q 71.409 72.248 71.559 72.185 Q 71.708 72.123 71.845 72.061 Q 71.982 71.999 72.168 71.974 Q 72.355 71.949 72.554 71.937 Q 74.122 71.937 74.259 73.343 Q 74.271 73.43 74.271 75.072 L 74.271 76.142 Q 74.271 76.615 74.296 76.702 Q 74.321 76.79 74.433 76.827 Q 74.694 76.864 75.043 76.864 L 75.242 76.864 L 75.242 77.437 L 75.142 77.437 L 74.856 77.424 Q 74.558 77.412 74.222 77.412 Q 73.886 77.412 73.749 77.399 Q 72.467 77.399 72.355 77.437 L 72.255 77.437 L 72.255 76.864 L 72.455 76.864 Q 73.214 76.864 73.214 76.665 Q 73.226 76.64 73.226 74.948 Q 73.214 73.268 73.201 73.168 Q 73.127 72.82 72.952 72.646 Q 72.778 72.472 72.654 72.434 Q 72.529 72.397 72.33 72.409 Q 71.77 72.409 71.347 72.832 Q 71.011 73.168 70.924 73.517 Q 70.837 73.865 70.824 74.55 L 70.824 75.346 L 70.824 76.093 Q 70.824 76.466 70.837 76.59 Q 70.849 76.715 70.874 76.752 Q 70.899 76.79 70.986 76.827 Q 71.248 76.864 71.596 76.864 L 71.795 76.864 L 71.795 77.437 L 71.695 77.437 L 71.397 77.424 Q 71.111 77.412 70.775 77.412 Q 70.439 77.412 70.302 77.399 Q 69.02 77.399 68.908 77.437 L 68.809 77.437 L 68.809 76.864 L 69.008 76.864 Q 69.767 76.864 69.767 76.665 Q 69.779 76.64 69.779 74.948 Q 69.767 73.268 69.754 73.168 Q 69.68 72.82 69.505 72.646 Q 69.331 72.472 69.207 72.434 Q 69.082 72.397 68.883 72.409 Q 68.323 72.409 67.9 72.832 Q 67.564 73.168 67.477 73.517 Q 67.39 73.865 67.378 74.55 L 67.378 75.346 L 67.378 76.093 Q 67.378 76.466 67.39 76.59 Q 67.402 76.715 67.427 76.752 Q 67.452 76.79 67.539 76.827 Q 67.801 76.864 68.149 76.864 L 68.348 76.864 L 68.348 77.437 L 68.249 77.437 L 67.962 77.424 Q 67.664 77.412 67.328 77.412 Q 66.992 77.412 66.855 77.399 Q 65.573 77.399 65.461 77.437 L 65.362 77.437 L 65.362 76.864 L 65.561 76.864 Z  M 79.087 73.504 Q 79.087 73.007 78.751 72.646 Q 78.415 72.285 77.78 72.285 Q 77.332 72.285 77.009 72.447 Q 76.636 72.683 76.636 73.094 Q 76.623 73.156 76.636 73.256 Q 76.648 73.355 76.835 73.554 Q 77.021 73.753 77.37 73.865 Q 77.594 73.928 77.917 73.977 Q 78.241 74.027 78.465 74.089 Q 78.689 74.151 78.863 74.251 Q 79.075 74.351 79.274 74.5 Q 79.473 74.649 79.672 75.01 Q 79.871 75.371 79.883 75.782 Q 79.883 76.553 79.411 77.051 Q 78.938 77.549 77.88 77.561 L 77.78 77.561 Q 77.133 77.561 76.586 77.113 L 76.486 77.2 L 76.374 77.312 Q 76.3 77.387 76.225 77.449 L 76.088 77.573 L 75.989 77.573 L 75.939 77.573 Q 75.901 77.573 75.827 77.499 L 75.827 76.516 L 75.827 75.794 Q 75.827 75.533 75.852 75.483 Q 75.877 75.433 75.976 75.421 L 76.088 75.421 Q 76.237 75.421 76.287 75.471 Q 76.337 75.52 76.349 75.62 Q 76.362 75.719 76.437 75.956 Q 76.511 76.192 76.673 76.478 Q 77.108 77.113 77.88 77.113 Q 79.087 77.113 79.087 76.142 Q 79.087 75.782 78.863 75.558 Q 78.614 75.259 77.83 75.11 Q 77.046 74.96 76.797 74.823 Q 76.349 74.612 76.088 74.251 Q 75.827 73.89 75.827 73.48 Q 75.827 72.994 76.038 72.658 Q 76.25 72.322 76.573 72.161 Q 76.897 71.999 77.196 71.937 Q 77.494 71.874 77.743 71.874 L 77.88 71.874 Q 78.378 71.874 78.751 72.061 L 78.938 72.161 L 79.05 72.073 Q 79.174 71.961 79.323 71.862 L 79.423 71.862 L 79.473 71.862 Q 79.51 71.862 79.585 71.937 L 79.585 73.579 L 79.51 73.654 L 79.162 73.654 Q 79.087 73.579 79.087 73.504 Z " fill-rule="evenodd" fill="rgb(227,225,215)"/></g></svg>